<svg xmlns="http://www.w3.org/2000/svg" viewBox="0 0 540 340" width="540" height="340">
  <defs>
    <linearGradient id="bg" x1="0%" y1="0%" x2="100%" y2="100%">
      <stop offset="0%" style="stop-color:#1a1a24"/>
      <stop offset="100%" style="stop-color:#111118"/>
    </linearGradient>
    <linearGradient id="accent" x1="0%" y1="0%" x2="100%" y2="100%">
      <stop offset="0%" style="stop-color:#6c5ce7"/>
      <stop offset="100%" style="stop-color:#a29bfe"/>
    </linearGradient>
    <filter id="glow">
      <feGaussianBlur stdDeviation="4" result="blur"/>
      <feMerge>
        <feMergeNode in="blur"/>
        <feMergeNode in="SourceGraphic"/>
      </feMerge>
    </filter>
  </defs>
  <rect width="540" height="340" rx="16" fill="url(#bg)"/>
  <rect x="20" y="20" width="500" height="40" rx="8" fill="#2a2a3a"/>
  <circle cx="38" cy="40" r="6" fill="#ff6b6b"/>
  <circle cx="58" cy="40" r="6" fill="#ffd93d"/>
  <circle cx="78" cy="40" r="6" fill="#6bcb77"/>
  <rect x="100" y="30" width="120" height="20" rx="4" fill="#3a3a4a"/>
  <rect x="20" y="80" width="500" height="1" fill="#2a2a3a"/>
  <rect x="30" y="100" width="480" height="50" rx="10" fill="#2a2a3a"/>
  <text x="50" y="130" font-family="Inter, Arial, sans-serif" font-size="14" fill="#8888a0">What is the subnet mask for /24?</text>
  <rect x="30" y="165" width="220" height="36" rx="8" fill="#2a2a3a"/>
  <text x="48" y="188" font-family="Inter, Arial, sans-serif" font-size="12" fill="#636e72">A. 255.0.0.0</text>
  <rect x="270" y="165" width="240" height="36" rx="8" fill="rgba(108,92,231,0.2)" stroke="#6c5ce7" stroke-width="1"/>
  <text x="288" y="188" font-family="Inter, Arial, sans-serif" font-size="12" fill="#6c5ce7" font-weight="600">B. 255.255.255.0</text>
  <rect x="30" y="215" width="220" height="36" rx="8" fill="#2a2a3a"/>
  <text x="48" y="238" font-family="Inter, Arial, sans-serif" font-size="12" fill="#636e72">C. 255.255.0.0</text>
  <rect x="270" y="215" width="240" height="36" rx="8" fill="#2a2a3a"/>
  <text x="288" y="238" font-family="Inter, Arial, sans-serif" font-size="12" fill="#636e72">D. 255.255.255.255</text>
  <rect x="30" y="270" width="480" height="1" fill="#2a2a3a"/>
  <rect x="370" y="290" width="140" height="32" rx="8" fill="url(#accent)" filter="url(#glow)"/>
  <text x="440" y="311" font-family="Inter, Arial, sans-serif" font-size="13" fill="#fff" font-weight="600" text-anchor="middle">Submit</text>
</svg>
